<?xml version="1.0" standalone="no"?><!-- Generator: Gravit.io --><svg xmlns="http://www.w3.org/2000/svg" xmlns:xlink="http://www.w3.org/1999/xlink" style="isolation:isolate" viewBox="366.913 297.202 256.597 256.597" width="256.597" height="256.597"><defs><clipPath id="_clipPath_zsZJV1KZiDpUyNBm0GYMKseSjZv2K1J9"><rect x="366.913" y="297.202" width="256.597" height="256.597"/></clipPath></defs><g clip-path="url(#_clipPath_zsZJV1KZiDpUyNBm0GYMKseSjZv2K1J9)"><rect x="366.913" y="297.202" width="256.597" height="256.597" style="fill:rgb(23,23,36)" fill-opacity="0"/><g opacity="0"><rect x="366.913" y="297.202" width="256.597" height="256.597" transform="matrix(1,0,0,1,0,0)" fill="rgb(235,235,235)"/></g><g><path d="M 590.778 317.304 L 593.599 344.3 C 594.14 349.476 590.377 354.116 585.202 354.657 L 410.003 372.969 C 404.828 373.51 400.187 369.747 399.646 364.572 L 396.824 337.576 C 396.283 332.4 400.046 327.759 405.221 327.218 L 580.42 308.907 C 585.596 308.366 590.237 312.128 590.778 317.304 Z" style="stroke:none;fill:#FEA736;stroke-miterlimit:10;"/><path d="M 422.081 308.398 L 447.371 307.693 C 453.081 307.534 457.846 312.041 458.005 317.751 L 463.977 531.968 C 464.136 537.678 459.629 542.443 453.919 542.602 L 428.629 543.307 C 422.919 543.466 418.154 538.959 417.995 533.249 L 412.023 319.032 C 411.864 313.322 416.371 308.557 422.081 308.398 Z" style="stroke:none;fill:#FE5436;stroke-miterlimit:10;"/><path d="M 559.931 433.144 L 558.05 462.124 C 557.747 466.794 553.71 470.34 549.039 470.037 L 408.557 460.922 C 403.887 460.619 400.341 456.581 400.644 451.911 L 402.524 422.931 C 402.828 418.261 406.865 414.715 411.535 415.018 L 552.018 424.133 C 556.688 424.436 560.234 428.474 559.931 433.144 Z" style="stroke:none;fill:#464646;stroke-miterlimit:10;"/></g></g></svg>